# xmcd
#
# Track frame offsets: 
#        150
#        30610
#        41564
#        66695
#        81388
#        98729
#        122651
#        144577
#
# Disc length: 2156 seconds
#
# Revision: 0
# Processed by: cddbd v1.5.2PL0 Copyright (c) Steve Scherf et al.
# Submitted via: ExactAudioCopy v0.95b4
#
DISCID=70086a08
DTITLE=South Shore Commission - The Very Best of South Shore Commissio
DTITLE=n: Free Man
DYEAR=1998
DGENRE=Dance
TTITLE0=Train Called Freedom [Disco Version]
TTITLE1=Train Called Freedom [Radio Version]
TTITLE2=Free Man [Disco Version]
TTITLE3=Free Man [Radio Version]
TTITLE4=Handle with Care
TTITLE5=Just a Matter of Time
TTITLE6=We're On the Right Track
TTITLE7=I'd Rather Switch Than Fight
EXTD=
EXTT0=
EXTT1=
EXTT2=
EXTT3=
EXTT4=
EXTT5=
EXTT6=
EXTT7=
PLAYORDER=
